<svg xmlns="http://www.w3.org/2000/svg" xmlns:xlink="http://www.w3.org/1999/xlink" version="1.1" x="0px" y="0px" width="40px" height="100px" viewBox="0 0 40 100" enable-background="new 0 0 40 100" xml:space="preserve">
<g id="Layer_1">
</g>
<g id="Layer_2">
	<g>
		<path d="M29.016,98.27l-1.723-9.008l0.754-0.754l-0.162-1.022l0.055-0.538l0.377-0.162l-1.562-0.914l-4.028-36.658V36.904    l2.549-17.028c0,0,3.176-0.539,4.307-1.562c0,0-0.646-0.592-1.185-0.808l0.216-0.646c0,0,3.352-0.354,3.391-1.346    c0.018-0.431-1.668-0.969-2.152-1.022v-0.754c0,0-3.877-1.723-6.837-2.691c0,0-0.538-0.27,0-0.861s1.077-0.646,0.593-0.861    c-0.485-0.215-0.832-0.269-0.832-0.269V8.464L22.1,8.141V7.603c0,0-1.076-0.484-1.669-0.538c-0.121-0.011-0.208-0.018-0.271-0.021    V7.011l-0.124,0.031c-0.012,0.001-0.019,0.003-0.02,0.005L20,7.051V1.73h-0.323v5.324c-0.033,0.003-0.068,0.006-0.108,0.01    C18.977,7.118,17.9,7.603,17.9,7.603v0.538l-0.676,0.323v0.593c0,0-0.347,0.054-0.832,0.269c-0.484,0.216,0.054,0.27,0.592,0.861    s0,0.861,0,0.861c-2.96,0.969-6.836,2.691-6.836,2.691v0.754c-0.484,0.054-2.17,0.592-2.153,1.022    c0.04,0.992,3.392,1.346,3.392,1.346l0.215,0.646c-0.539,0.216-1.185,0.808-1.185,0.808c1.13,1.022,4.307,1.562,4.307,1.562    l2.207,16.849L16.77,49.213l-4.639,36.821l-1.283,0.751l0.377,0.162l0.054,0.538l-0.162,1.022l0.754,0.754l-1.723,9.008h2.458    l1.125-8.326h9.21l0.789,8.326 M18.563,20.037v17.872c0,0-2.01-17.441-2.01-17.872C16.554,20.037,17.774,20.037,18.563,20.037z     M15.806,70.265l3.26-23.743l2.655,24.044h-5.957L15.806,70.265z M14.162,85.207l1.387-13.493h6.172l0.79,13.493H14.162z     M22.009,33.315c-0.646,0.014-0.431-12.632-0.359-13.278c0,0,1.866,0.144,2.584,0C24.233,20.037,23.262,33.289,22.009,33.315z"/>
		<line x1="12.606" y1="98.27" x2="12.606" y2="98.27"/>
	</g>
</g>
</svg>