<svg xmlns="http://www.w3.org/2000/svg" xmlns:xlink="http://www.w3.org/1999/xlink" version="1.1" id="Layer_1" x="0px" y="0px" width="100px" height="100px" viewBox="0 0 100 100" enable-background="new 0 0 100 100" xml:space="preserve">
<path d="M59.583,52.285c-0.751-3.027-1.466-6.103-2.134-9.12V6.778c0,0-0.545-2.261-2.229-4.087c-0.738-0.8-1.373-1.369-1.871-1.768  v95.136c1.293-4.69,3.229-12.935,3.539-21.197c0.361-9.615,0.489-19.247,0.535-25.326c0.241,1.013,0.487,2.025,0.735,3.029  c4.467,18.014,4.237,40.627,4.104,46.137H53.35v0.002h-1.049L52.166,0.116c0,0-2.152,0.31-5.229,2.446  c-3.274,2.271-3.884,4.216-3.884,4.216v32.576c-0.35,1.274-0.706,2.547-1.068,3.814C34.841,68.148,36.353,100,36.353,100h4.906  v-7.432l1.795-0.062V100h7.586h1.529h11.514C63.684,100,64.783,73.258,59.583,52.285z M37.765,98.701  c-0.036-1.223-0.081-3.301-0.08-6.012l2.117-0.072v6.084H37.765z M44.511,92.508V92.46l1.136-0.039v6.28h-1.136V92.508z   M46.229,98.701V92.4l1.451-0.049v6.35H46.229z M48.264,92.332l2.446-0.082v-1.583l-13.02,0.438  c0.076-11.199,0.967-31.041,5.708-47.618c2.937-10.268,5.495-21.091,7.315-29.332V98.7h-2.449V92.332z"/>
</svg>