<svg xmlns="http://www.w3.org/2000/svg" xmlns:xlink="http://www.w3.org/1999/xlink" version="1.1" id="Layer_1" x="0px" y="0px" width="100.0px" height="100px" viewBox="0 0 216 216" enable-background="new 0 0 216 216" xml:space="preserve">
<g>
	<rect x="65.717" y="75.133" transform="matrix(0.9232 0.3843 -0.3843 0.9232 40.5921 -23.0348)" width="24.436" height="29.843"/>
	<rect x="53.499" y="105.075" transform="matrix(0.9232 0.3843 -0.3843 0.9232 50.9332 -16.0855)" width="24.436" height="28.66"/>
	
		<rect x="119.955" y="132.983" transform="matrix(-0.9232 -0.3843 0.3843 -0.9232 198.7111 334.3386)" width="25.617" height="28.662"/>
	<path d="M128.049,102.86c1.757,2.489,4.282,4.313,7.177,5.208l-7.804,18.748l23.65,9.845l11.468-27.511l-23.649-9.807l-0.195,0.48   l-4.669-11.327l12.327-29.612l-3.271-1.361l0.593-1.424l3.271,1.361l4.087-9.816l0.119,0.049l0.369-0.948   c3.089-7.927-0.51-16.372-8.37-19.644c-1.992-0.83-4.058-1.25-6.14-1.25c-5.945,0-11.193,3.507-13.696,9.152l-0.413,0.933   l0.118,0.05l-4.085,9.814l3.271,1.361l-0.593,1.423l-3.271-1.361L91.24,112.336L59.103,98.958l-0.555,1.333l32.138,13.378   l-3.654,8.778l-4.361-1.815l-2.583,6.207l2.181,0.907l-15.43,37.066l33.461,13.93l15.431-37.066l2.18,0.907l2.584-6.207   l-5.451-2.27l3.654-8.778l32.582,13.562l0.555-1.331l-32.582-13.563L128.049,102.86z M113.883,140.907l-14.662,35.22   l-29.768-12.393l14.661-35.219l21.409,8.912L113.883,140.907z M116.831,139.968l-0.333-0.139l0,0l-33.462-13.93l0,0l-0.334-0.139   l1.046-2.514l2.515,1.047l0,0l4.899,2.039l26.716,11.121L116.831,139.968z M126.157,102.199l-8.753,21.028l-13.423-5.588   L126.157,102.199z M128.938,100.725l0.05-0.119l-0.206-0.41c-0.135-0.267-0.264-0.538-0.379-0.818   c-0.565-1.371-0.851-2.806-0.88-4.232c-0.007-3.155,1.226-6.266,3.505-8.521l8.3,20.292l0.034,0.085c-0.004,0-0.007,0-0.011,0   c-0.85,0-1.705-0.25-2.544-0.434l-0.816-0.336l-0.104,0.248C132.934,105.565,130.431,103.502,128.938,100.725z M121.552,44.723   l4.083-9.809l-0.046-0.019c2.329-4.432,6.532-7.044,11.424-7.044c1.816,0,3.623,0.368,5.371,1.096   c6.626,2.759,9.716,9.422,7.613,16.11l-0.045-0.019l-4.083,9.807l-1.425-0.593l0.454-1.091l-21.469-8.938l-0.454,1.091   L121.552,44.723z M124.054,47.931l0.454-1.091l17.775,7.4l-0.454,1.091l0,0l-0.593,1.424l0,0l-0.453,1.09l-17.776-7.4   L124.054,47.931L124.054,47.931z M119.422,49.839l1.424,0.593l-0.454,1.091l21.47,8.938l0.453-1.09l1.424,0.593l-10.789,25.919   l-1.11-2.691l-1.038,0.814c-4.702,3.69-6.475,10.04-4.438,15.614l-24.521,17.074l0.055,0.079l-8.81-3.668L119.422,49.839z    M113.195,133.338l-24.317-10.122l3.654-8.778l24.317,10.122L113.195,133.338z"/>
</g>
</svg>