<svg xmlns="http://www.w3.org/2000/svg" xmlns:xlink="http://www.w3.org/1999/xlink" version="1.1" x="0px" y="0px" width="100px" height="100px" viewBox="0 0 100 100" enable-background="new 0 0 100 100" xml:space="preserve">
<g id="Captions" display="none">
	<rect x="-192" display="inline" width="185" height="99"/>
	<rect y="-36" display="inline" width="100" height="30"/>
	<text transform="matrix(1 0 0 1 66 -19.5)" display="inline" fill="#000000" font-family="'Helvetica'" font-size="2.4">http://thenounproject.com</text>
	<text transform="matrix(1 0 0 1 7.166 -24.5)" display="inline"><tspan x="0" y="0" fill="#000000" font-family="'Helvetica-Bold'" font-size="6.1578">The Noun Project</tspan><tspan x="1.12" y="4.8" fill="#000000" font-family="'Helvetica-Bold'" font-size="4">Icon Template</tspan></text>
	
		<text transform="matrix(1 0 0 1 -178.5 10.5)" display="inline" fill="#000000" font-family="'Helvetica-Bold'" font-size="6.1578">Reminders</text>
	<line display="inline" fill="#000000" stroke="#FFFFFF" stroke-miterlimit="10" x1="8" y1="-14.5" x2="18" y2="-14.5"/>
	<line display="inline" fill="#000000" stroke="#FFFFFF" stroke-miterlimit="10" x1="-179" y1="16.5" x2="-162" y2="16.5"/>
	<g display="inline">
		<g>
			<g>
				<rect x="-170.802" y="31.318" fill="#000000" width="8.721" height="8.642"/>
				<path fill="#000000" d="M-164.455,42.312h4.747v-4.703h-4.747V42.312z M-159.266,42.749h-5.63V37.17h5.63V42.749      L-159.266,42.749z M-166.221,44.062h8.279v-8.203h-8.279V44.062L-166.221,44.062z M-157.5,44.5h-9.163v-9.079h9.163V44.5      L-157.5,44.5z"/>
				<polygon fill="#000000" points="-166.149,44.133 -166.292,43.991 -158.013,35.787 -157.871,35.929     "/>
			</g>
		</g>
	</g>
	<rect x="-179" y="58" display="inline" fill="none" width="35" height="32.5"/>
	<text transform="matrix(1 0 0 1 -179 60.1572)" display="inline"><tspan x="0" y="0" fill="#000000" font-family="'Helvetica-Bold'" font-size="3">Strokes</tspan><tspan x="0" y="5" fill="#000000" font-family="'Helvetica'" font-size="2.4">Try to keep strokes at 4px</tspan><tspan x="0" y="10" fill="#000000" font-family="'Helvetica'" font-size="2.4">Minimum stroke weight is 2px</tspan><tspan x="0" y="14.5" fill="#000000" font-family="'Helvetica'" font-size="2.4">For thicker strokes use even </tspan><tspan x="0" y="17.5" fill="#000000" font-family="'Helvetica'" font-size="2.4">numbers: 6px, 8px etc.</tspan><tspan x="0" y="22" fill="#000000" font-family="'Helvetica-Bold'" font-size="2.4">Remember to expand strokes </tspan><tspan x="0" y="25" fill="#000000" font-family="'Helvetica-Bold'" font-size="2.4">before saving as an SVG </tspan></text>
	<rect x="-136.5" y="58" display="inline" fill="none" width="35" height="32.5"/>
	<text transform="matrix(1 0 0 1 -136.5 60.1572)" display="inline"><tspan x="0" y="0" fill="#000000" font-family="'Helvetica-Bold'" font-size="3">Size</tspan><tspan x="0" y="5" fill="#000000" font-family="'Helvetica'" font-size="2.4">Cannot be wider or taller than </tspan><tspan x="0" y="8.5" fill="#000000" font-family="'Helvetica'" font-size="2.4">100px (artboard size)</tspan><tspan x="0" y="13.5" fill="#000000" font-family="'Helvetica'" font-size="2.4">Scale your icon to fill as much of </tspan><tspan x="0" y="16.5" fill="#000000" font-family="'Helvetica'" font-size="2.4">the artboard as possible</tspan></text>
	<rect x="-94" y="58" display="inline" fill="none" width="35" height="32.5"/>
	<text transform="matrix(1 0 0 1 -94 60.1572)" display="inline"><tspan x="0" y="0" fill="#000000" font-family="'Helvetica-Bold'" font-size="3">Ungroup</tspan><tspan x="0" y="5" fill="#000000" font-family="'Helvetica'" font-size="2.4">If your design has more than one </tspan><tspan x="0" y="8" fill="#000000" font-family="'Helvetica'" font-size="2.4">shape, make sure to ungroup</tspan></text>
	<rect x="-50" y="58" display="inline" fill="none" width="35" height="32.5"/>
	<text transform="matrix(1 0 0 1 -50 60.1572)" display="inline"><tspan x="0" y="0" fill="#000000" font-family="'Helvetica-Bold'" font-size="3">Save as</tspan><tspan x="0" y="5" fill="#000000" font-family="'Helvetica'" font-size="2.4">Save as .SVG and make sure </tspan><tspan x="0" y="8" fill="#000000" font-family="'Helvetica'" font-size="2.4">&#8220;Use Artboards&#8221; is checked</tspan></text>
	
		<text transform="matrix(1.0074 0 0 1 -125.542 30.5933)" display="inline" fill="#000000" font-family="'Helvetica'" font-size="2.5731">100px</text>
	
		<text transform="matrix(1.0074 0 0 1 -41 39)" display="inline" fill="#000000" font-family="'Helvetica-Bold'" font-size="5.1462">.SVG</text>
	<rect x="-126.514" y="34.815" display="inline" fill="#000000" width="10.261" height="10.185"/>
	<rect x="-126.477" y="31.766" display="inline" fill="#000000" width="0.522" height="2.337"/>
	<rect x="-116.812" y="31.766" display="inline" fill="#000000" width="0.523" height="2.337"/>
	<rect x="-127" y="32.337" display="inline" fill="#000000" width="11.233" height="0.572"/>
	<g display="inline">
		<rect x="-83.805" y="33.844" fill="#000000" width="10.305" height="10.156"/>
		<rect x="-76.809" y="28.707" fill="#000000" width="3.308" height="3.261"/>
	</g>
	<rect x="-178.5" y="22.5" display="inline" fill="#000000" stroke="#FFFFFF" stroke-miterlimit="10" width="30" height="30"/>
	<rect x="-136.5" y="22.5" display="inline" fill="#000000" stroke="#FFFFFF" stroke-miterlimit="10" width="30" height="30"/>
	<rect x="-93.5" y="22.5" display="inline" fill="#000000" stroke="#FFFFFF" stroke-miterlimit="10" width="30" height="30"/>
	<rect x="-49.5" y="22.5" display="inline" fill="#000000" stroke="#FFFFFF" stroke-miterlimit="10" width="30" height="30"/>
</g>
<g id="Your_Icon">
	<g>
		<path d="M50.006,1.012c-3.914,0-7.701,0.508-11.35,1.375l1.725,1.129l6.795,0.959l3.137-0.697l5.873,0.717l1.178,1.57l-4.09-0.545    l-4.182,1.742l1.201,3.123l4.32,1.963l0.576-3.953l4.096-0.262l5.836,5.574l1.654,2.18l0.785,1.393l-4.531,1.787l-6.844,3.102    l-0.561,3.037l-4.529,4.27l0.176,4.096L49.9,33.559l-0.547-3.473l-2.596-0.848l-7.463,0.393l-3.008,5.506l2.615,3.137l4.32-2.357    l0.295,3.838l1.656,1.307l2.959,3.398l-0.146,4.291l5.463,1.283l4.006-2.875l1.83,0.609l6.719,2.682l9.43,3.535l1.963,4.713    l6.715,3.27l1.533,5.764l-4.582,5.125l-5.402,5.662l-5.727,2.963l-5.893,3.926l-7.855,5.107l-4.35,4.426l-1.543-1.678l3.49-8.844    l0.881-10.252L47.15,67.34l0.049-5.744l1.965-2.357l2.307-6.824l-4.662-2.604l-3.145-5.105l-4.914-1.889l-7.703-4.15l-3.143-8.643    l-1.57,4.32l-2.357-7.068l0.785-10.605l3.928-3.535l-1.178-2.357l2.748-4.32l-5.355,1.531C10.611,16.545,1.01,32.135,1.01,50.006    C1.01,77.062,22.945,99,50.006,99C77.062,99,99,77.062,99,50.006C99,22.947,77.062,1.012,50.006,1.012z"/>
	</g>
</g>
</svg>