<?xml version="1.0" encoding="utf-8"?>
<!-- Generator: Adobe Illustrator 16.0.0, SVG Export Plug-In . SVG Version: 6.00 Build 0)  -->
<!DOCTYPE svg PUBLIC "-//W3C//DTD SVG 1.1//EN" "http://www.w3.org/Graphics/SVG/1.1/DTD/svg11.dtd">
<svg version="1.1" id="Layer_1" xmlns="http://www.w3.org/2000/svg" xmlns:xlink="http://www.w3.org/1999/xlink" x="0px" y="0px"
	 width="83.938px" height="100px" viewBox="0 0 83.938 100" enable-background="new 0 0 83.938 100" xml:space="preserve">
<g>
	<path fill="#010101" d="M33.571,43.349c0-5.782-4.705-10.491-10.491-10.491c-5.781,0-10.491,4.709-10.491,10.491
		c0,5.785,4.71,10.492,10.491,10.492C28.868,53.841,33.571,49.136,33.571,43.349z M16.788,43.349c0-3.471,2.826-6.292,6.292-6.292
		c3.471,0,6.295,2.821,6.295,6.292c0,3.471-2.824,6.297-6.295,6.297C19.613,49.646,16.788,46.821,16.788,43.349z"/>
	<path fill="#010101" d="M25.182,66.43c-4.629,0-8.396,3.766-8.396,8.395l0,0l0,0c0,4.629,3.767,8.394,8.396,8.394l0,0
		c4.626,0,8.392-3.765,8.392-8.394S29.808,66.43,25.182,66.43z M25.182,79.02c-2.313,0-4.197-1.881-4.197-4.195
		s1.884-4.198,4.197-4.198c2.312,0,4.195,1.884,4.195,4.198S27.494,79.02,25.182,79.02z"/>
	<path fill="#010101" d="M83.915,57.049c-0.003-0.145-0.009-0.287-0.012-0.428c-0.009-0.18-0.016-0.354-0.021-0.53
		c-0.009-0.196-0.021-0.39-0.032-0.583c-0.006-0.107-0.015-0.22-0.021-0.331c-0.018-0.239-0.032-0.483-0.056-0.724
		c-0.003-0.031-0.007-0.064-0.01-0.098c-0.397-4.566-1.531-8.926-3.28-12.961c-0.01-0.012-0.016-0.024-0.021-0.038
		c-0.103-0.242-0.214-0.488-0.325-0.729c-0.088-0.196-0.179-0.39-0.27-0.58c-0.032-0.071-0.064-0.139-0.097-0.206
		c-1.441-3-3.24-5.836-5.376-8.432c-6.059-7.371-14.514-12.504-23.804-14.446c-0.015-0.003-0.025-0.003-0.038-0.006
		c-2.776-0.581-5.647-0.885-8.593-0.885c-7.008,0-13.62,1.729-19.433,4.779l-2.112-3.654l10.907-6.295L25.029,0L10.494,8.391
		l5.247,9.088l1.047,1.817l2.129,3.691C7.533,30.5,0,43.406,0,58.036C0,81.178,18.827,100,41.966,100
		c2.939,0,5.808-0.305,8.576-0.881c0.021-0.003,0.038-0.006,0.056-0.01c9.29-1.941,17.744-7.074,23.804-14.445
		c2.136-2.6,3.938-5.436,5.379-8.438c0.022-0.045,0.041-0.088,0.059-0.129c0.105-0.221,0.211-0.438,0.309-0.658
		c0.107-0.229,0.211-0.467,0.311-0.7c0.012-0.024,0.023-0.048,0.032-0.071c1.749-4.033,2.88-8.389,3.277-12.952
		c0.004-0.034,0.007-0.067,0.01-0.102c0.022-0.24,0.038-0.48,0.056-0.72c0.006-0.11,0.015-0.219,0.021-0.332
		c0.015-0.193,0.025-0.388,0.031-0.582c0.006-0.174,0.013-0.354,0.021-0.529c0.003-0.145,0.009-0.284,0.012-0.428
		c0.012-0.328,0.019-0.656,0.019-0.99C83.93,57.708,83.924,57.377,83.915,57.049z M16.226,9.931l7.271-4.199l2.095,3.637
		l-7.269,4.195L16.226,9.931z M48.742,95.193c-2.202,0.4-4.467,0.611-6.778,0.611c-20.824,0-37.767-16.941-37.767-37.77
		c0-13.636,7.264-25.605,18.123-32.247l1.676-0.967c5.349-2.9,11.469-4.552,17.97-4.552c2.312,0,4.574,0.211,6.774,0.609
		c4.651,9.651,7.343,21.064,7.831,33.192c-4.57,0.971-8.051,4.926-8.294,9.722c-0.01,0.179-0.016,0.356-0.016,0.539
		c0,0.179,0.006,0.356,0.016,0.536c0.22,4.339,3.091,7.98,7.014,9.363C53.981,81.854,51.78,88.893,48.742,95.193z M58.75,70.628
		c-0.179,0-0.357-0.015-0.536-0.028c-0.063-0.007-0.132-0.013-0.199-0.023c-3.126-0.363-5.558-3.026-5.558-6.243
		c0-3.47,2.821-6.293,6.293-6.293c0,0,0,0,0.003-0.003c0.135,0.003,0.268,0.015,0.398,0.021c0.088,0.006,0.167,0.006,0.249,0.015
		c0.132,0.012,0.258,0.038,0.387,0.059c0.082,0.015,0.161,0.021,0.237,0.038c0.126,0.025,0.249,0.062,0.372,0.092
		c0.075,0.025,0.154,0.038,0.23,0.062c0.12,0.037,0.234,0.087,0.349,0.129c0.076,0.031,0.155,0.053,0.227,0.084
		c0.111,0.047,0.22,0.104,0.322,0.156c0.075,0.033,0.154,0.07,0.229,0.107c0.097,0.055,0.193,0.116,0.284,0.176
		c0.079,0.049,0.155,0.092,0.23,0.142c0.013,0.009,0.024,0.021,0.035,0.028c0.076,0.054,0.149,0.111,0.224,0.168
		c0.073,0.056,0.151,0.106,0.223,0.166c0.085,0.07,0.164,0.149,0.249,0.229c0.064,0.057,0.135,0.111,0.196,0.177
		c0.082,0.084,0.154,0.171,0.233,0.255c0.057,0.064,0.117,0.127,0.167,0.19c0.079,0.094,0.146,0.188,0.218,0.284
		c0.05,0.066,0.1,0.132,0.148,0.201c0.067,0.1,0.129,0.211,0.19,0.313c0.041,0.067,0.091,0.132,0.126,0.204
		c0.059,0.109,0.107,0.227,0.164,0.343c0.029,0.07,0.069,0.138,0.098,0.208c0.049,0.117,0.09,0.24,0.134,0.36
		c0.026,0.073,0.055,0.144,0.079,0.22c0.035,0.126,0.067,0.255,0.097,0.381c0.021,0.076,0.041,0.146,0.057,0.221
		c0.032,0.148,0.05,0.295,0.069,0.447c0.01,0.059,0.023,0.114,0.029,0.176c0.021,0.215,0.03,0.426,0.03,0.646
		C65.046,67.805,62.222,70.628,58.75,70.628z"/>
</g>
</svg>
