<svg xmlns:dc="http://purl.org/dc/elements/1.1/" xmlns:cc="http://creativecommons.org/ns#" xmlns:rdf="http://www.w3.org/1999/02/22-rdf-syntax-ns#" xmlns:svg="http://www.w3.org/2000/svg" xmlns="http://www.w3.org/2000/svg" xmlns:sodipodi="http://sodipodi.sourceforge.net/DTD/sodipodi-0.dtd" xmlns:inkscape="http://www.inkscape.org/namespaces/inkscape" width="100" height="100" viewBox="0 0 80 80" version="1.1" id="svg2" inkscape:version="0.48.2 r9819" sodipodi:docname="alien abduction ufo.svg">
  <metadata id="metadata10">
    <rdf:RDF>
      <cc:Work rdf:about="">
        <dc:format>image/svg+xml</dc:format>
        <dc:type rdf:resource="http://purl.org/dc/dcmitype/StillImage"/>
        <dc:title/>
      </cc:Work>
    </rdf:RDF>
  </metadata>
  <defs id="defs8"><inkscape:path-effect is_visible="true" id="path-effect5043" effect="spiro"/>
<inkscape:path-effect is_visible="true" id="path-effect5065" effect="spiro"/>

	
	
	

	
	

	
	
	

	
<inkscape:path-effect is_visible="true" id="path-effect5043-2" effect="spiro"/>
<inkscape:path-effect is_visible="true" id="path-effect5065-8" effect="spiro"/>
<inkscape:path-effect effect="spiro" id="path-effect5065-1" is_visible="true"/>
<inkscape:path-effect effect="spiro" id="path-effect5043-1" is_visible="true"/>
</defs>
  <sodipodi:namedview pagecolor="#ffffff" bordercolor="#666666" borderopacity="1" objecttolerance="10" gridtolerance="10" guidetolerance="10" inkscape:pageopacity="0" inkscape:pageshadow="2" inkscape:window-width="1366" inkscape:window-height="706" id="namedview6" showgrid="true" inkscape:zoom="2.6148899" inkscape:cx="50.089965" inkscape:cy="49.302971" inkscape:window-x="-8" inkscape:window-y="-8" inkscape:window-maximized="1" inkscape:current-layer="svg2" inkscape:snap-grids="true">
    <inkscape:grid type="xygrid" id="grid3807"/>
  </sodipodi:namedview>
  <path style="color:#000000;fill:#000000;fill-opacity:1;fill-rule:nonzero;stroke:none;stroke-width:1;marker:none;visibility:visible;display:inline;overflow:visible;enable-background:accumulate" d="M 50 12.25 C 43.076003 12.25 37.230891 16.741922 35.15625 22.96875 C 17.155499 23.607784 3.8138234 25.370131 2.21875 27.5 C 28.530168 29.492251 71.46341 29.396515 97.78125 27.5 C 96.186177 25.370131 82.875751 23.607784 64.875 22.96875 C 62.800359 16.741923 56.923997 12.25 50 12.25 z M 50 14.65625 C 51.791252 14.65625 53.25 16.114997 53.25 17.90625 C 53.25 19.697502 51.791252 21.15625 50 21.15625 C 48.208748 21.15625 46.78125 19.697502 46.78125 17.90625 C 46.78125 16.114997 48.208748 14.65625 50 14.65625 z M 2.0625 27.96875 C 2.1733187 30.019057 13.145655 31.780252 29 32.625 C 32.865455 36.042609 40.806727 38.375 50 38.375 C 59.193273 38.375 67.134545 36.042609 71 32.625 C 86.854345 31.780252 97.826681 30.019057 97.9375 27.96875 C 71.549285 29.878341 28.439855 29.976774 2.0625 27.96875 z M 49.5 39.8125 L 49.5 41.8125 L 50.5 41.8125 L 50.5 39.8125 L 49.5 39.8125 z M 49.5 42.8125 L 49.5 44.8125 L 50.5 44.8125 L 50.5 42.8125 L 49.5 42.8125 z M 49.5 45.8125 L 49.5 47.8125 L 50.5 47.8125 L 50.5 45.8125 L 49.5 45.8125 z M 49.5 48.78125 L 49.5 50.8125 L 50.5 50.8125 L 50.5 48.78125 L 49.5 48.78125 z M 49.5 51.8125 L 49.5 53.78125 L 50.5 53.78125 L 50.5 51.8125 L 49.5 51.8125 z M 49.5 54.8125 L 49.5 56.8125 L 50.5 56.8125 L 50.5 54.8125 L 49.5 54.8125 z M 49.5 57.8125 L 49.5 59.8125 L 50.5 59.8125 L 50.5 57.8125 L 49.5 57.8125 z M 49.5 60.8125 L 49.5 62.8125 L 50.5 62.8125 L 50.5 60.8125 L 49.5 60.8125 z M 49.5 63.78125 L 49.5 65.8125 L 50.5 65.8125 L 50.5 63.78125 L 49.5 63.78125 z M 49.5 66.8125 L 49.5 68.78125 L 50.5 68.78125 L 50.5 66.8125 L 49.5 66.8125 z M 41.1875 67.28125 C 40.301735 67.370456 39.508275 67.998037 39.25 68.90625 C 38.912665 70.092485 39.595011 71.318911 40.78125 71.65625 C 41.967485 71.993586 43.193913 71.31124 43.53125 70.125 C 43.868585 68.938764 43.18624 67.712339 42 67.375 C 41.851721 67.332833 41.710458 67.2924 41.5625 67.28125 C 41.433037 67.271494 41.314038 67.268506 41.1875 67.28125 z M 44.6875 68.59375 C 44.462392 68.6272 44.274575 68.768408 44.1875 69 L 43.1875 71.6875 C 43.171262 71.744625 43.155613 71.787387 43.15625 71.84375 C 43.152625 71.852875 43.15925 71.865638 43.15625 71.875 C 43.156978 71.885875 43.155 71.8955 43.15625 71.90625 C 43.130825 72.007825 43.135225 72.1178 43.1875 72.21875 C 44.420905 74.635759 45.620464 76.975976 46.875 79.375 C 46.988788 79.594686 47.249022 79.676338 47.46875 79.5625 L 48 79.28125 C 48.219701 79.16745 48.301276 78.907215 48.1875 78.6875 C 47.156647 76.73215 46.201661 74.818807 45.1875 72.875 L 47.5 73.53125 C 47.509 73.5425 47.521525 73.551713 47.53125 73.5625 C 47.53725 73.56925 47.556138 73.587163 47.5625 73.59375 L 50.21875 76.34375 C 50.391021 76.521351 50.666155 76.515985 50.84375 76.34375 L 51.28125 75.9375 C 51.458851 75.76523 51.453485 75.490095 51.28125 75.3125 L 50.34375 74.34375 L 52.46875 74.9375 L 54.65625 77.25 L 56.53125 82.46875 C 56.615588 82.701356 56.892399 82.834324 57.125 82.75 L 58.53125 82.25 C 58.763856 82.165662 58.865584 81.888854 58.78125 81.65625 L 56.8125 76.25 C 56.051542 75.057355 54.878978 74.007177 54.03125 73.09375 L 56.625 74.21875 C 57.953522 75.587238 59.374 76.936761 60.75 78.28125 C 60.926466 78.454679 61.20157 78.457683 61.375 78.28125 L 62.4375 77.21875 C 62.610926 77.042286 62.613991 76.767179 62.4375 76.59375 C 60.783063 74.966551 60.02535 73.948563 57.71875 72.09375 L 54.1875 70.5625 C 54.140025 70.541712 54.079963 70.535075 54.03125 70.53125 C 53.970625 70.483925 53.893242 70.454313 53.8125 70.4375 L 44.9375 68.59375 C 44.856762 68.576937 44.762536 68.582625 44.6875 68.59375 z " transform="scale(0.8,0.8)" id="path3909"/>
</svg>